<?xml version="1.0" encoding="UTF-8"?>
<svg xmlns="http://www.w3.org/2000/svg" id="Layer_1" data-name="Layer 1" viewBox="0 0 24 24">
  <path d="m21,22.5v1.5h-3v-1.5c0-1.116-.74-2.053-1.751-2.373l-2.249,3.373-2-3-2,3-2.249-3.373c-1.011.32-1.751,1.257-1.751,2.373v1.5h-3v-1.5c0-3.032,2.467-5.5,5.5-5.5h7c3.032,0,5.5,2.468,5.5,5.5ZM7.214,4.893c1.426-1.339,3.289-2.011,5.255-1.877,3.662.236,6.531,3.433,6.531,7.275,0,1.494-1.215,2.709-2.709,2.709h-2.568c-.346-.595-.984-1-1.723-1-1.105,0-2,.895-2,2s.895,2,2,2h4.291c3.147,0,5.709-2.562,5.709-5.709C22,4.871,17.898.36,12.663.021c-2.801-.18-5.463.771-7.5,2.682-2.01,1.884-3.162,4.544-3.162,7.297h3c0-1.956.786-3.77,2.214-5.107Zm4.786,2.123c1.651,0,2.996,1.342,3,2.992,0,.35-.073.68-.185.992h2.185c1,0,.999-.648,1-.984v-.016c-.009-3.301-2.697-5.984-6-5.984s-5.992,2.684-6,5.984v.016c.005,1.789.801,3.392,2.051,4.49-.021-.167-.051-.332-.051-.505,0-1.129.472-2.145,1.225-2.872-.141-.347-.224-.723-.225-1.12.004-1.65,1.349-2.992,3-2.992Z"/>
</svg>
